<svg width="17" height="21" viewBox="0 0 17 21" fill="none" xmlns="http://www.w3.org/2000/svg">
<path d="M15.6654 13.8849H4.40692C3.53441 13.8849 3.09816 13.8849 2.74023 13.9808C1.76893 14.241 1.01026 14.9997 0.75 15.971" stroke="#183264" stroke-width="1.5"/>
<path d="M4.50293 5.44104H12.0086" stroke="#183264" stroke-width="1.5" stroke-linecap="round"/>
<path d="M4.50293 8.72476H9.19396" stroke="#183264" stroke-width="1.5" stroke-linecap="round"/>
<path d="M9.19398 13.8849V17.1976C9.19398 17.4562 9.19398 17.5854 9.10495 17.6377C9.01601 17.69 8.89432 17.6322 8.65086 17.5165L7.48542 16.9629C7.40304 16.9238 7.36186 16.9042 7.31757 16.9042C7.27329 16.9042 7.2321 16.9238 7.14973 16.9629L5.98428 17.5165C5.74085 17.6322 5.61915 17.69 5.53015 17.6377C5.44116 17.5854 5.44116 17.4562 5.44116 17.1976V14.3071" stroke="#183264" stroke-width="1.5" stroke-linecap="round"/>
<path d="M6.37923 19.5141C3.72558 19.5141 2.39876 19.5141 1.57438 18.6897C0.75 17.8653 0.75 16.5385 0.75 13.8849V6.37923C0.75 3.72558 0.75 2.39876 1.57438 1.57438C2.39876 0.75 3.72558 0.75 6.37923 0.75H10.1321C12.7857 0.75 14.1125 0.75 14.9369 1.57438C15.7613 2.39876 15.7613 3.72558 15.7613 6.37923M10.1321 19.5141C12.7857 19.5141 14.1125 19.5141 14.9369 18.6897C15.7613 17.8653 15.7613 16.5385 15.7613 13.8849V10.1321" stroke="#183264" stroke-width="1.5" stroke-linecap="round"/>
</svg>
