<svg width="121" height="90" viewBox="0 0 121 90" fill="none" xmlns="http://www.w3.org/2000/svg">
<path d="M57.4474 69.8359C57.1446 69.8948 56.8346 69.7512 56.6739 69.47C56.5045 69.1767 56.5361 68.8017 56.7499 68.5447L64.7312 58.9185C65.0024 58.5919 65.4732 58.5571 65.7846 58.8444C66.0946 59.1302 66.1262 59.6276 65.855 59.9541L59.5716 67.5333C63.4438 66.1771 70.861 62.9809 73.7903 57.6031C75.7106 54.0789 76.1182 51.5767 76.4454 49.5644C76.8157 47.289 77.1085 45.4914 79.6718 44.3378C80.0492 44.1669 80.4899 44.3514 80.652 44.752C80.8142 45.1512 80.6377 45.6138 80.2588 45.7847C78.4432 46.6026 78.2782 47.6141 77.918 49.8305C77.5893 51.8519 77.1372 54.6202 75.0863 58.3863C70.739 66.3646 58.0273 69.6892 57.4876 69.8268C57.4747 69.8298 57.4604 69.8328 57.4474 69.8359Z" fill="#9DD1D9"/>
<path d="M82.3198 51.232C82.004 51.232 81.6998 51.0521 81.5419 50.7376C81.3166 50.2856 81.4816 49.7262 81.9107 49.4888L94.4617 42.5356C88.2731 40.5006 82.4202 45.0181 82.3571 45.068C81.9682 45.3734 81.4185 45.2903 81.1285 44.8821C80.8386 44.4739 80.9161 43.8948 81.3036 43.5894C81.6223 43.3369 89.183 37.4738 96.9332 41.6058C97.2259 41.7615 97.4125 42.0775 97.414 42.4237C97.4168 42.77 97.236 43.089 96.9446 43.2492L82.7259 51.1262C82.5953 51.1988 82.4561 51.232 82.3183 51.232H82.3198Z" fill="#9DD1D9"/>
<path d="M38.6117 63.2818C33.4721 63.2818 27.8389 62.1811 24.8852 58.5647C23.6251 57.0211 23.1529 55.3852 23.483 53.7025C24.2523 49.7655 29.2713 47.1454 29.4837 47.035C29.9185 46.8128 30.4438 47.0017 30.6563 47.4598C30.8687 47.9179 30.6893 48.4713 30.2544 48.6966C30.2099 48.7192 25.7952 51.0309 25.201 54.0789C24.9857 55.1856 25.3172 56.2591 26.2157 57.3597C30.4123 62.5002 41.8337 61.8757 47.0177 60.3986C54.0919 58.3818 66.4879 50.9629 66.6128 50.8888C67.0333 50.6363 67.57 50.7905 67.8097 51.2335C68.0494 51.6765 67.903 52.242 67.4825 52.4944C66.9673 52.8044 54.7679 60.1053 47.4756 62.1827C45.4433 62.7617 42.1437 63.2818 38.6117 63.2818Z" fill="#9DD1D9"/>
<path d="M37.7677 38.325C39.2417 38.325 40.1904 39.4347 40.1904 40.6185C40.1904 43.8736 34.7481 48.1266 31.2734 48.8281C31.625 50.1601 32.6426 50.5668 33.3803 50.5668C36.9612 50.5668 39.8402 47.7184 42.4035 44.687C42.6489 44.3907 43.0006 44.2063 43.3163 44.2063C43.7024 44.2063 44.054 44.687 44.054 45.0937C44.054 46.0553 39.0336 52.7122 33.3817 52.7122C30.2573 52.7122 29.1335 50.7527 29.1335 48.5333C29.1335 43.8736 34.5055 38.3265 37.7692 38.3265L37.7677 38.325ZM36.4689 43.3913C37.241 42.652 37.8725 41.6905 37.8725 41.1719C37.8725 40.8756 37.6271 40.7652 37.2755 40.7652C35.4499 40.8015 32.3254 43.8721 31.4126 46.4968C33.0272 46.0901 34.9935 44.8322 36.4674 43.3898L36.4689 43.3913ZM39.1369 35.7351C39.1369 35.4388 39.2776 35.1062 39.4886 34.8839C41.0329 33.2571 43.9478 31.4444 45.0357 31.4444C45.5969 31.4444 45.9829 31.8889 45.9829 32.5163C45.9829 32.8867 45.8078 33.1815 45.4562 33.3675C43.5962 34.2187 41.8753 35.3647 40.8922 36.4003C40.7516 36.5485 40.3655 36.6589 40.0139 36.6589C39.4871 36.6589 39.1355 36.2885 39.1355 35.7336L39.1369 35.7351Z" fill="#183264"/>
<path d="M41.2424 48.494C41.2768 45.313 43.6292 42.5764 46.2628 40.9496C46.824 39.3591 48.2994 38.6198 49.8437 38.6198C52.0209 38.6198 54.3029 40.0621 54.3029 42.7987C54.3029 43.2795 54.2326 43.7602 54.1981 44.2047C55.2516 44.1307 56.1644 44.0203 57.3585 43.0209C57.6039 42.8365 57.8149 42.7246 57.99 42.7246C58.376 42.7246 58.8324 42.9831 58.8324 43.4276C58.8324 43.7602 58.7621 44.2788 58.4105 44.5736C57.2164 45.5715 55.4611 46.016 53.5307 46.1264C52.0209 49.1955 48.8261 52.8573 45.3155 52.8573C42.9288 52.8573 41.2424 51.3409 41.2424 48.494ZM51.1784 46.1642C49.1418 45.8315 47.7382 45.2767 46.4393 43.0572C44.8592 44.4633 43.3493 46.4968 43.3493 48.308C43.3493 49.6022 44.087 50.6378 45.561 50.6378C47.8085 50.6378 50.0546 48.3443 51.1784 46.1626V46.1642ZM52.2663 42.9106C52.2663 41.1356 50.9316 40.5807 49.8092 40.5807C48.6869 40.5807 48.3352 41.4319 48.3352 41.9127C48.3352 42.9846 50.0202 44.0944 52.0912 44.2063C52.196 43.6892 52.2663 43.2447 52.2663 42.9121V42.9106Z" fill="#183264"/>
<path d="M54.8641 50.0482C54.8641 48.9385 55.075 47.8288 55.286 47.2376C56.9006 42.2816 62.94 30.2621 67.9949 30.2621C69.575 30.2621 70.0314 31.7407 70.0314 32.6297C70.0314 37.0671 60.7987 44.4648 57.9196 46.276C56.5863 48.1992 57.0772 50.6031 58.1306 50.6031C60.4126 50.6031 63.7122 48.4577 66.5568 45.3508C66.9787 44.9063 67.9963 43.3535 68.8043 43.3535C69.2263 43.3535 69.542 43.6862 69.542 44.2047C69.542 44.5752 68.8747 45.4989 68.5245 45.9056C66.2769 48.6422 61.5034 52.8951 57.6757 52.8951C55.6391 52.8951 54.8669 51.5268 54.8669 50.0482H54.8641ZM67.7136 32.9245C67.7136 32.7401 67.6432 32.6282 67.4681 32.6282C66.8711 32.6282 66.4147 33.0349 65.7473 33.626C63.1137 36.0299 60.5863 40.5792 59.3922 42.7972C62.4822 40.6896 67.7121 35.1425 67.7121 32.923L67.7136 32.9245Z" fill="#183264"/>
<path d="M65.9927 48.494C66.0286 45.313 68.3795 42.5764 71.0131 40.9496C71.5743 39.3591 73.0497 38.6198 74.594 38.6198C76.7712 38.6198 79.0532 40.0621 79.0532 42.7987C79.0532 43.2795 78.9829 43.7602 78.9484 44.2047C80.0019 44.1307 80.9147 44.0203 82.1088 43.0209C82.3542 42.8365 82.5652 42.7246 82.7403 42.7246C83.1264 42.7246 83.5828 42.9831 83.5828 43.4276C83.5828 43.7602 83.5124 44.2788 83.1608 44.5736C81.9667 45.5715 80.2114 46.016 78.2811 46.1264C76.7712 49.1955 73.5764 52.8573 70.0659 52.8573C67.6791 52.8573 65.9927 51.3409 65.9927 48.494ZM75.9287 46.1642C73.8922 45.8315 72.4885 45.2767 71.1897 43.0572C69.6095 44.4633 68.0996 46.4968 68.0996 48.308C68.0996 49.6022 68.8373 50.6378 70.3113 50.6378C72.5589 50.6378 74.805 48.3443 75.9287 46.1626V46.1642ZM77.0166 42.9106C77.0166 41.1356 75.6819 40.5807 74.5595 40.5807C73.4372 40.5807 73.0856 41.4319 73.0856 41.9127C73.0856 42.9846 74.7705 44.0944 76.8415 44.2063C76.9463 43.6892 77.0166 43.2447 77.0166 42.9121V42.9106Z" fill="#183264"/>
</svg>
