<svg width="21" height="21" viewBox="0 0 21 21" fill="none" xmlns="http://www.w3.org/2000/svg">
<path d="M10.1322 10.1321C11.6867 10.1321 12.9469 8.87191 12.9469 7.31744C12.9469 5.76297 11.6867 4.50282 10.1322 4.50282C8.57777 4.50282 7.31763 5.76297 7.31763 7.31744C7.31763 8.87191 8.57777 10.1321 10.1322 10.1321Z" stroke="#CEEAEE" stroke-width="1.5"/>
<path d="M15.7326 17.6377C15.5833 14.9249 14.7527 12.9467 10.1323 12.9467C5.51189 12.9467 4.6813 14.9249 4.53198 17.6377" stroke="#CEEAEE" stroke-width="1.5" stroke-linecap="round"/>
<path d="M5.44103 2.00515C6.821 1.20688 8.42321 0.75 10.1321 0.75C15.3136 0.75 19.5141 4.95049 19.5141 10.1321C19.5141 15.3136 15.3136 19.5141 10.1321 19.5141C4.95049 19.5141 0.75 15.3136 0.75 10.1321C0.75 8.42321 1.20688 6.821 2.00515 5.44103" stroke="#CEEAEE" stroke-width="1.5" stroke-linecap="round"/>
</svg>
