<svg width="20" height="17" viewBox="0 0 20 17" fill="none" xmlns="http://www.w3.org/2000/svg">
<path d="M10 2.91164L9.4973 3.37731C9.62884 3.50883 9.81033 3.58315 10 3.58315C10.1897 3.58315 10.3712 3.50883 10.5027 3.37731L10 2.91164ZM1.30852 9.98103C1.51217 10.2958 1.94243 10.3922 2.26953 10.1962C2.59662 10.0002 2.6967 9.586 2.49305 9.2712L1.30852 9.98103ZM4.91134 12.1078C4.63856 11.8459 4.19682 11.8464 3.92468 12.109C3.65255 12.3715 3.65308 12.7967 3.92587 13.0586L4.91134 12.1078ZM1.39535 6.1675C1.39535 3.65799 2.56486 2.10089 4.02717 1.56552C5.49345 1.02869 7.53608 1.41608 9.4973 3.37731L10.5027 2.44598C8.27805 0.221372 5.66949 -0.472638 3.53108 0.310269C1.38871 1.09462 0 3.25836 0 6.1675H1.39535ZM13.2582 15.4457C14.6464 14.3923 16.3104 12.9801 17.6336 11.4023C18.942 9.84207 20 8.02248 20 6.16746H18.6047C18.6047 7.5561 17.7932 9.0736 16.5478 10.5588C15.3172 12.0262 13.7432 13.3675 12.3944 14.391L13.2582 15.4457ZM20 6.16746C20 3.25835 18.6113 1.09461 16.4689 0.31026C14.3305 -0.472629 11.722 0.221372 9.4973 2.44598L10.5027 3.37731C12.4639 1.41608 14.5065 1.02869 15.9728 1.56552C17.4352 2.10088 18.6047 3.65798 18.6047 6.16746H20ZM6.74179 15.4456C7.92718 16.3451 8.74428 17 10 17V15.657C9.32028 15.657 8.89833 15.3718 7.60563 14.391L6.74179 15.4456ZM12.3944 14.391C11.1017 15.3718 10.6797 15.657 10 15.657V17C11.2557 17 12.0728 16.3451 13.2582 15.4457L12.3944 14.391ZM2.49305 9.2712C1.7991 8.19841 1.39535 7.14711 1.39535 6.1675H0C0 7.49253 0.540037 8.79301 1.30852 9.98103L2.49305 9.2712ZM7.60563 14.391C6.75263 13.7438 5.80552 12.9663 4.91134 12.1078L3.92587 13.0586C4.86834 13.9636 5.85878 14.7756 6.74179 15.4456L7.60563 14.391Z" fill="#183264"/>
</svg>
