<svg width="28" height="19" viewBox="0 0 28 19" fill="none" xmlns="http://www.w3.org/2000/svg">
<path d="M19.7442 11.6811C19.9963 11.3918 19.9707 10.9488 19.6872 10.6915C19.4037 10.4343 18.9696 10.4603 18.7175 10.7497L19.7442 11.6811ZM13.7363 17.5241L14.222 18.0196L14.2362 18.0051L14.2497 17.9898L13.7363 17.5241ZM12.2006 18.299V19H12.2299L12.259 18.9973L12.2006 18.299ZM13.5905 11.6096C13.8038 11.2896 13.7226 10.8536 13.4089 10.6359C13.0953 10.4181 12.6681 10.5011 12.4547 10.8212L13.5905 11.6096ZM25.5573 10.275L26.5512 12.3039L27.7798 11.6769L26.7858 9.64792L25.5573 10.275ZM5.35387 12.3657L1.80537 10.9171L1.29521 12.2188L4.8437 13.6674L5.35387 12.3657ZM1.37363 10.2662V8.41156H0V10.2662H1.37363ZM1.37363 8.41156V3.50481H0V8.41156H1.37363ZM2.06045 2.80384H3.37388V1.40192H2.06045V2.80384ZM4.00774 3.23489L5.88187 7.81939L7.1496 7.27951L5.27547 2.69508L4.00774 3.23489ZM7.78344 9.11252H23.7143V7.7106H7.78344V9.11252ZM18.7175 10.7497L13.223 17.0583L14.2497 17.9898L19.7442 11.6811L18.7175 10.7497ZM12.2006 17.5981H10.8344V19H12.2006V17.5981ZM10.2063 16.6872L13.5905 11.6096L12.4547 10.8212L9.07052 15.8988L10.2063 16.6872ZM10.8344 17.5981C10.3994 17.5981 10.0807 17.1924 10.1583 16.7715L8.80841 16.5121C8.57435 17.7808 9.52374 19 10.8344 19V17.5981ZM13.2506 17.0283C12.8697 17.4171 12.7904 17.4852 12.7248 17.5183C12.6757 17.543 12.6167 17.5592 12.1421 17.6006L12.259 18.9973C12.6334 18.9648 12.9988 18.9439 13.3337 18.775C13.652 18.6143 13.9161 18.3318 14.222 18.0196L13.2506 17.0283ZM25.9369 13.3183H16.4836V14.7202H25.9369V13.3183ZM11.1539 13.3183H10.2004V14.7202H11.1539V13.3183ZM19.0995 7.99926L14.0164 0.866024L12.9054 1.69059L17.9885 8.82387L19.0995 7.99926ZM12.3501 0H11.2426V1.40192H12.3501V0ZM9.4337 3.10986L12.4466 8.74718L13.6524 8.07594L10.6396 2.43853L9.4337 3.10986ZM11.2426 0C9.67855 0 8.68477 1.70854 9.4337 3.10986L10.6396 2.43853C10.39 1.97144 10.7212 1.40192 11.2426 1.40192V0ZM14.0164 0.866024C13.6286 0.32191 13.0093 0 12.3501 0V1.40192C12.5697 1.40192 12.7763 1.50923 12.9054 1.69059L14.0164 0.866024ZM5.88187 7.81939C6.20202 8.6025 6.952 9.11252 7.78344 9.11252V7.7106C7.5063 7.7106 7.25631 7.54055 7.1496 7.27951L5.88187 7.81939ZM3.37388 2.80384C3.65103 2.80384 3.90102 2.97384 4.00774 3.23489L5.27547 2.69508C4.95531 1.91194 4.20534 1.40192 3.37388 1.40192V2.80384ZM1.80537 10.9171C1.54461 10.8107 1.37363 10.5529 1.37363 10.2662H0C0 11.1261 0.512942 11.8994 1.29521 12.2188L1.80537 10.9171ZM4.8437 13.6674C6.54739 14.3629 8.36547 14.7202 10.2004 14.7202V13.3183C8.54022 13.3183 6.89529 12.995 5.35387 12.3657L4.8437 13.6674ZM9.07052 15.8988C8.97635 16.0401 8.85701 16.2487 8.80841 16.5121L10.1583 16.7715C10.1571 16.7784 10.1566 16.7753 10.1636 16.7601C10.171 16.7443 10.1839 16.7209 10.2063 16.6872L9.07052 15.8988ZM26.5512 12.3039C26.7795 12.7699 26.4475 13.3183 25.9369 13.3183V14.7202C27.4685 14.7202 28.4648 13.0751 27.7798 11.6769L26.5512 12.3039ZM1.37363 3.50481C1.37363 3.11767 1.68113 2.80384 2.06045 2.80384V1.40192C0.922491 1.40192 0 2.34341 0 3.50481H1.37363ZM26.7858 9.64792C26.2041 8.46063 25.0151 7.7106 23.7143 7.7106V9.11252C24.4948 9.11252 25.2082 9.56254 25.5573 10.275L26.7858 9.64792Z" fill="#CEEAEE"/>
</svg>
